<svg xmlns="http://www.w3.org/2000/svg" xmlns:xlink="http://www.w3.org/1999/xlink" xmlns:svgjs="http://svgjs.com/svgjs" version="1.1" width="512" height="512" x="0" y="0" viewBox="0 0 512 512" style="enable-background:new 0 0 512 512" xml:space="preserve"><g><path fill-rule="evenodd" d="M15.989 55.651h79.5l71.052 223.458A61.587 61.587 0 0 0 187.276 398.7H217.4a45.057 45.057 0 1 0 13.687 0h138.871a45.056 45.056 0 1 0 13.688 0h40.127a15.967 15.967 0 1 0 0-31.933h-236.5a29.611 29.611 0 1 1 0-59.222h242.49a36.226 36.226 0 0 0 34.6-25.361l45.864-144.233a36.3 36.3 0 0 0-34.6-47.293H140.206l-17.76-55.864a15.988 15.988 0 0 0-15.252-11.145h-91.2a16 16 0 1 0 0 32.005zm141.726 90.083-7.336-23.074H475.63a4.337 4.337 0 0 1 4.093 5.643l-5.55 17.431z" fill="#000000" data-original="#000000"/></g></svg>